# Blender 4.5.3 LTS
# www.blender.org
mtllib piece.mtl
o Piece
v 0.956438 0.283582 1.000000
v -0.956438 0.283582 1.000000
v 0.753247 0.283582 -1.000000
v -0.753247 0.283582 -1.000000
v 0.000000 0.283582 1.000000
v 0.000000 0.283582 -1.369231
v 0.956438 -0.000000 1.000000
v -0.956438 0.000000 1.000000
v 0.753247 -0.000000 -1.000000
v -0.753247 0.000000 -1.000000
v -0.000000 0.000000 1.000000
v -0.000000 0.000000 -1.369231
vn -0.0000 1.0000 -0.0000
vn -0.0000 -1.0000 -0.0000
vn -0.0000 -0.0000 1.0000
vn -0.9949 -0.0000 -0.1011
vn 0.9949 -0.0000 -0.1011
vn -0.4401 -0.0000 -0.8979
vn 0.4401 -0.0000 -0.8979
vt 0.252698 0.180031
vt 0.251143 0.791269
vt 0.057285 0.695660
vt 0.005842 0.180032
vt 0.499551 0.181287
vt 0.445485 0.696648
vt 0.746779 0.180031
vt 0.993632 0.181287
vt 0.939566 0.696648
vt 0.745224 0.791269
vt 0.499922 0.180032
vt 0.551366 0.695660
vt 0.029677 0.930270
vt 0.252849 0.930270
vt 0.252838 0.996440
vt 0.029687 0.996434
vt 0.005902 0.930451
vt 0.474956 0.930451
vt 0.474956 0.996618
vt 0.005902 0.996618
vt 0.004588 0.930451
vt 0.473642 0.930451
vt 0.473642 0.996618
vt 0.004588 0.996618
vt 0.029677 0.930062
vt 0.225420 0.930062
vt 0.225407 0.996233
vt 0.029687 0.996225
vt 0.421139 0.930070
vt 0.421150 0.996233
vt 0.476000 0.930276
vt 0.476010 0.996440
s 0
usemtl Material
f 5/1/1 6/2/1 4/3/1 2/4/1
f 1/5/1 3/6/1 6/2/1 5/1/1
f 11/7/2 8/8/2 10/9/2 12/10/2
f 7/11/2 11/7/2 12/10/2 9/12/2
f 1/13/3 5/14/3 11/15/3 7/16/3
f 2/17/4 4/18/4 10/19/4 8/20/4
f 3/21/5 1/22/5 7/23/5 9/24/5
f 4/25/6 6/26/6 12/27/6 10/28/6
f 6/26/7 3/29/7 9/30/7 12/27/7
f 5/14/3 2/31/3 8/32/3 11/15/3
